<svg width="92" height="92" xmlns="http://www.w3.org/2000/svg">
    <g fill="none" fill-rule="evenodd">
        <circle stroke="#000" stroke-width="3.68" fill="#FFF" cx="46" cy="46" r="44.16"/>
        <path d="M24.575 54.096v-1.833h-6.094v-14.33H16.56v16.163h8.015zm15.555.397a8.446 8.446 0 0 0 4.273-1.126 8.201 8.201 0 0 0 3.091-3.09 8.446 8.446 0 0 0 1.126-4.273 8.383 8.383 0 0 0-1.137-4.273 8.156 8.156 0 0 0-3.124-3.08c-1.325-.743-2.775-1.115-4.35-1.115a8.284 8.284 0 0 0-4.206 1.126 8.202 8.202 0 0 0-3.08 3.102 8.506 8.506 0 0 0-1.127 4.284c0 1.538.376 2.959 1.127 4.261a8.1 8.1 0 0 0 3.113 3.07 8.633 8.633 0 0 0 4.294 1.114zm-.055-1.854c-1.78 0-3.312-.64-4.592-1.921-1.281-1.28-1.921-2.845-1.921-4.692 0-1.848.622-3.415 1.865-4.703 1.244-1.288 2.793-1.932 4.648-1.932 1.81 0 3.36.64 4.648 1.92 1.288 1.281 1.932 2.864 1.932 4.748 0 1.884-.637 3.452-1.91 4.703-1.273 1.251-2.83 1.877-4.67 1.877zm18.592 1.457V37.933h-1.9v16.163h1.9zm12.21.397c1.222 0 2.292-.437 3.212-1.313.92-.876 1.38-1.91 1.38-3.103 0-.912-.294-1.78-.883-2.605-.589-.824-1.52-1.704-2.793-2.639-1.273-.934-2.086-1.608-2.44-2.02a2.153 2.153 0 0 1-.53-1.446c0-.552.188-1.005.563-1.358.376-.353.84-.53 1.391-.53.552 0 1.035.136 1.447.409.412.272.912.805 1.501 1.6l1.524-1.192c-.648-.913-1.31-1.6-1.988-2.064-.677-.464-1.472-.696-2.384-.696-1.178 0-2.138.372-2.882 1.115-.743.743-1.115 1.652-1.115 2.727 0 .5.096 1 .287 1.501.192.5.497.972.917 1.413.42.442 1.188 1.086 2.307 1.932 1.119.847 1.906 1.56 2.363 2.142.456.582.684 1.196.684 1.844 0 .648-.272 1.214-.817 1.7-.545.486-1.2.729-1.965.729-1.192 0-2.267-.89-3.224-2.672l-1.612.927c1.222 2.4 2.908 3.6 5.057 3.6z" fill="#000" fill-rule="nonzero"/>
    </g>
</svg>
